<svg xmlns="http://www.w3.org/2000/svg" width="485" height="63" viewBox="0 0 485 63">
  <defs>
    <style>
      .cls-1, .cls-2, .cls-3 {
        fill-rule: evenodd;
      }

      .cls-2 {
        fill: #f20921;
      }

      .cls-3 {
        fill: #03e203;
      }
    </style>
  </defs>
  <path id="_" data-name="+" class="cls-1" d="M244.113,31.891v5.552h17.711V55.032h5.552V37.443h17.71V31.891h-17.71V14.3h-5.552V31.891H244.113Z"/>
  <path id="MOTIFF" class="cls-2" d="M305.506,53.685l3.881-28.467,14.134,28.467h1.009L338.5,25.433l3.9,28.252h3.871l-5.685-39.5h-0.633l-15.9,32.415L307.99,14.18h-0.641l-5.656,39.5h3.813Zm57.506-37.745a20.046,20.046,0,0,0-7.511,7.614,21.051,21.051,0,0,0-2.754,10.554,19.776,19.776,0,0,0,6.046,14.556,20.22,20.22,0,0,0,14.834,6.016,20,20,0,0,0,14.712-6.042,20.045,20.045,0,0,0,6.034-14.717,19.941,19.941,0,0,0-6.047-14.744A20.5,20.5,0,0,0,373.3,13.187,20.2,20.2,0,0,0,363.012,15.939Zm18.913,3.372A16.375,16.375,0,0,1,388.1,25.4a16.719,16.719,0,0,1,2.192,8.506,17.139,17.139,0,0,1-2.192,8.6,15.976,15.976,0,0,1-6.106,6.1,16.9,16.9,0,0,1-8.513,2.231,16.615,16.615,0,0,1-16.65-16.744,17.118,17.118,0,0,1,2.2-8.627,16.867,16.867,0,0,1,14.445-8.439A16.7,16.7,0,0,1,381.925,19.312Zm25.455-1.264V53.685h4.028V18.047h8.809V14.18H398.571v3.867h8.809Zm17.548,35.637h3.948V14.18h-3.948v39.5Zm12.564,0h3.948V34.3h15.845V30.428H441.44V18.047h15.845V14.18H437.492v39.5Zm27,0h3.948V34.3h15.845V30.428H468.44V18.047h15.845V14.18H464.492v39.5Z"/>
  <path id="NN" class="cls-1" d="M31.772,60.858H49.037V28.236L71.286,60.858H88.591V1.445H71.286v32.87L48.915,1.445H31.772V60.858Zm69,0h17.265V28.236l22.249,32.622h17.305V1.445H140.286v32.87L117.915,1.445H100.772V60.858Z"/>
  <path id="I" class="cls-3" d="M0.88,60.513h18.4V1.1H0.88V60.513Z"/>
  <path id="O" class="cls-3" d="M171.934,48.764A25.038,25.038,0,0,0,182.613,58.9q6.585,3.2,16.636,3.2,9.888,0,16.515-3.708A24.988,24.988,0,0,0,225.9,48.015q3.506-6.666,3.505-17.082,0-14.347-8.024-22.31T198.52,0.658q-14.469,0-22.574,8.105T167.84,31.419Q167.84,41.835,171.934,48.764ZM189.563,18.49a11.153,11.153,0,0,1,8.916-3.931,11.573,11.573,0,0,1,9.18,3.87q3.382,3.871,3.384,12.26,0,9.97-3.243,13.82t-9.159,3.85a11.317,11.317,0,0,1-9.1-3.931Q186.2,40.5,186.2,31.5,186.2,22.422,189.563,18.49Z"/>
</svg>
