<svg xmlns="http://www.w3.org/2000/svg" width="388" height="46" viewBox="0 0 388 46">
  <defs>
    <style>
      .cls-1, .cls-2, .cls-3 {
        fill: #fff;
      }

      .cls-1 {
        fill-rule: evenodd;
      }

      .cls-2, .cls-3 {
        font-size: 60px;
        text-anchor: middle;
      }

      .cls-2 {
        font-family: Arial;
      }

      .cls-3 {
        font-family: "Century Gothic";
      }
    </style>
  </defs>
  <path id="MOTIFF" class="cls-1" d="M208.506,42.685l3.881-28.467,14.134,28.467h1.009L241.5,14.433l3.9,28.252h3.871l-5.685-39.5h-0.633l-15.9,32.415L210.99,3.18h-0.641l-5.656,39.5h3.813ZM266.012,4.939a20.046,20.046,0,0,0-7.511,7.614,21.051,21.051,0,0,0-2.754,10.554,19.776,19.776,0,0,0,6.046,14.556,20.22,20.22,0,0,0,14.834,6.016,20,20,0,0,0,14.712-6.042,20.045,20.045,0,0,0,6.034-14.717,19.941,19.941,0,0,0-6.047-14.744A20.5,20.5,0,0,0,276.3,2.187,20.2,20.2,0,0,0,266.012,4.939Zm18.913,3.372A16.375,16.375,0,0,1,291.1,14.4a16.719,16.719,0,0,1,2.192,8.506,17.139,17.139,0,0,1-2.192,8.6,15.976,15.976,0,0,1-6.106,6.1,16.9,16.9,0,0,1-8.513,2.231,16.091,16.091,0,0,1-11.769-4.851,16.121,16.121,0,0,1-4.881-11.893,17.118,17.118,0,0,1,2.2-8.627,16.433,16.433,0,0,1,6.133-6.154,16.274,16.274,0,0,1,8.312-2.285A16.7,16.7,0,0,1,284.925,8.312ZM310.38,7.047V42.685h4.028V7.047h8.809V3.18H301.571V7.047h8.809Zm17.548,35.637h3.948V3.18h-3.948v39.5Zm12.564,0h3.948V23.3h15.845V19.428H344.44V7.047h15.845V3.18H340.492v39.5Zm27,0h3.948V23.3h15.845V19.428H371.44V7.047h15.845V3.18H367.492v39.5Z"/>
  <text id="INNO" class="cls-2" x="70.274" y="44.367"><tspan x="70.274">INNO</tspan></text>
  <text id="_" data-name="+" class="cls-3" x="176.112" y="45.388"><tspan x="176.112">+</tspan></text>
</svg>
