<?xml version="1.0" encoding="utf-8"?>
<!-- Generator: Adobe Illustrator 22.1.0, SVG Export Plug-In . SVG Version: 6.00 Build 0)  -->
<svg version="1.1" id="Layer_1" xmlns="http://www.w3.org/2000/svg" xmlns:xlink="http://www.w3.org/1999/xlink" x="0px" y="0px"
	 viewBox="0 0 400 182" style="enable-background:new 0 0 400 182;" xml:space="preserve">
<style type="text/css">
	.st0{fill:#42AC48;}
	.st1{fill:#252525;}
</style>
<g>
	<g>
		<path class="st0" d="M93.9,144.7v31.9h79.5V97h-30.1C140.7,122.7,119.8,143,93.9,144.7z"/>
		<path class="st0" d="M143.3,86.7h30.1V7.3H93.9v31.3C119.9,40.3,140.9,60.9,143.3,86.7z"/>
		<path class="st0" d="M37.4,97H4.1v79.7h79.5v-32.2C59.2,141.3,39.9,121.6,37.4,97z"/>
		<circle class="st0" cx="90.3" cy="91.7" r="25.7"/>
		<path class="st0" d="M83.6,54.5V38.9c-24.6,3.1-44,23-46.3,47.8h15.5C55,70.4,67.5,57.4,83.6,54.5z"/>
	</g>
</g>
<g>
	<path class="st1" d="M215,41v24.3c2.2-2.2,4.6-3.9,7.2-5c2.6-1.1,5.3-1.7,8.3-1.7c6.4,0,11.8,2.4,16.3,7.2c4.5,4.8,6.7,11,6.7,18.6
		c0,7.3-2.3,13.4-6.9,18.3c-4.6,4.9-10.1,7.4-16.4,7.4c-2.8,0-5.4-0.5-7.9-1.5s-4.8-2.6-7.2-4.9v5.2h-12.2V41H215z M228,69.9
		c-3.9,0-7.1,1.3-9.6,4c-2.5,2.6-3.8,6.1-3.8,10.3c0,4.3,1.3,7.9,3.8,10.5c2.5,2.7,5.8,4,9.6,4c3.7,0,6.9-1.4,9.5-4.1
		c2.6-2.7,3.8-6.2,3.8-10.4c0-4.2-1.3-7.6-3.8-10.3C235,71.3,231.8,69.9,228,69.9z"/>
	<path class="st1" d="M259,59.9h12.4v23.6c0,4.6,0.3,7.8,0.9,9.6c0.6,1.8,1.6,3.2,3,4.2c1.4,1,3.1,1.5,5.2,1.5c2,0,3.8-0.5,5.2-1.5
		c1.4-1,2.5-2.4,3.2-4.3c0.5-1.4,0.8-4.4,0.8-9v-24H302v20.7c0,8.5-0.7,14.4-2,17.5c-1.7,3.8-4.1,6.8-7.3,8.8
		c-3.2,2.1-7.3,3.1-12.2,3.1c-5.4,0-9.7-1.2-13-3.6c-3.3-2.4-5.6-5.7-7-10c-1-3-1.4-8.4-1.4-16.2V59.9z"/>
	<path class="st1" d="M314.5,39.7c2.2,0,4,0.8,5.5,2.3c1.5,1.6,2.3,3.4,2.3,5.7c0,2.2-0.8,4.1-2.3,5.6c-1.5,1.5-3.3,2.3-5.5,2.3
		c-2.2,0-4-0.8-5.6-2.4c-1.5-1.6-2.3-3.5-2.3-5.7c0-2.2,0.8-4,2.3-5.5C310.5,40.5,312.4,39.7,314.5,39.7z M308.4,59.9h12.3v48.9
		h-12.3V59.9z"/>
	<path class="st1" d="M325.9,41h12.3v67.8h-12.3V41z"/>
	<path class="st1" d="M380.8,41h12.3v67.8h-12.3v-5.2c-2.4,2.3-4.8,3.9-7.2,4.9c-2.4,1-5,1.5-7.8,1.5c-6.3,0-11.8-2.5-16.4-7.4
		c-4.6-4.9-6.9-11-6.9-18.3c0-7.6,2.2-13.7,6.7-18.6c4.5-4.8,9.9-7.2,16.3-7.2c2.9,0,5.7,0.6,8.3,1.7c2.6,1.1,5,2.8,7.1,5V41z
		 M367.9,69.9c-3.8,0-6.9,1.3-9.5,4c-2.5,2.7-3.8,6.1-3.8,10.3c0,4.2,1.3,7.7,3.8,10.4c2.6,2.7,5.7,4.1,9.4,4.1c3.9,0,7.1-1.3,9.6-4
		c2.5-2.7,3.8-6.2,3.8-10.5c0-4.3-1.3-7.7-3.8-10.3C375,71.3,371.8,69.9,367.9,69.9z"/>
</g>
<g>
	<path class="st1" d="M203.1,144.1l3.4-23.9h0.4l9.7,19.6l9.6-19.6h0.4l3.4,23.9h-2.3l-2.4-17.1l-8.4,17.1h-0.6l-8.6-17.2l-2.3,17.2
		H203.1z"/>
	<path class="st1" d="M236.2,120.2h2.7l6.1,9.9l6-9.9h2.8l-7.6,12.5v11.4H244v-11.4L236.2,120.2z"/>
	<path class="st1" d="M273.7,120.2h4.8c2.7,0,4.6,0.1,5.5,0.4c1.4,0.3,2.5,1,3.3,2.1c0.9,1,1.3,2.4,1.3,3.9c0,1.6-0.4,2.9-1.3,3.9
		c-0.8,1-2,1.7-3.5,2.1c-1.1,0.3-3.1,0.4-6.1,0.4h-1.7v11.1h-2.4V120.2z M276.1,122.6v8.1l4,0c1.6,0,2.8-0.1,3.6-0.4
		c0.8-0.3,1.4-0.8,1.8-1.4c0.4-0.7,0.6-1.4,0.6-2.2c0-0.8-0.2-1.5-0.6-2.2c-0.4-0.7-1-1.1-1.7-1.4c-0.7-0.3-1.9-0.4-3.5-0.4H276.1z"
		/>
	<path class="st1" d="M296.7,120.2h2.4v10h12.2v-10h2.4v23.9h-2.4v-11.5h-12.2v11.5h-2.4V120.2z"/>
	<path class="st1" d="M334.1,119.6c3.6,0,6.6,1.2,9.1,3.6c2.4,2.4,3.7,5.4,3.7,8.9c0,3.5-1.2,6.5-3.6,8.9c-2.4,2.4-5.4,3.7-8.9,3.7
		c-3.5,0-6.5-1.2-9-3.6c-2.4-2.4-3.7-5.4-3.7-8.8c0-2.3,0.6-4.4,1.7-6.4c1.1-2,2.6-3.5,4.5-4.6S331.9,119.6,334.1,119.6z
		 M334.2,121.9c-1.8,0-3.4,0.5-5,1.4s-2.8,2.2-3.7,3.7c-0.9,1.6-1.3,3.3-1.3,5.2c0,2.8,1,5.2,3,7.2c2,2,4.3,2.9,7.1,2.9
		c1.9,0,3.6-0.5,5.1-1.3c1.6-0.9,2.8-2.1,3.7-3.7c0.9-1.6,1.3-3.3,1.3-5.2c0-1.9-0.4-3.6-1.3-5.1c-0.9-1.5-2.1-2.8-3.7-3.7
		S336,121.9,334.2,121.9z"/>
	<path class="st1" d="M352.6,122.6v-2.3h13.1v2.3h-5.3v21.6H358v-21.6H352.6z"/>
	<path class="st1" d="M383.9,119.6c3.6,0,6.6,1.2,9.1,3.6c2.4,2.4,3.7,5.4,3.7,8.9c0,3.5-1.2,6.5-3.6,8.9c-2.4,2.4-5.4,3.7-8.9,3.7
		c-3.5,0-6.5-1.2-9-3.6c-2.4-2.4-3.7-5.4-3.7-8.8c0-2.3,0.6-4.4,1.7-6.4c1.1-2,2.6-3.5,4.5-4.6S381.6,119.6,383.9,119.6z M384,121.9
		c-1.8,0-3.4,0.5-5,1.4s-2.8,2.2-3.7,3.7c-0.9,1.6-1.3,3.3-1.3,5.2c0,2.8,1,5.2,3,7.2c2,2,4.3,2.9,7.1,2.9c1.9,0,3.6-0.5,5.1-1.3
		c1.6-0.9,2.8-2.1,3.7-3.7c0.9-1.6,1.3-3.3,1.3-5.2c0-1.9-0.4-3.6-1.3-5.1c-0.9-1.5-2.1-2.8-3.7-3.7S385.8,121.9,384,121.9z"/>
</g>
</svg>
