<svg xmlns="http://www.w3.org/2000/svg" width="243" height="124" viewBox="0 0 243 124">
  <defs>
    <style>
      .cls-1 {
        fill: #f20921;
      }

      .cls-1, .cls-2, .cls-3 {
        fill-rule: evenodd;
      }

      .cls-3 {
        fill: #03e203;
      }
    </style>
  </defs>
  <path id="MOTIFF" class="cls-1" d="M27.506,115.685l3.881-28.467,14.134,28.467h1.009L60.5,87.433l3.9,28.252h3.871l-5.685-39.5H61.955L46.05,108.6,29.99,76.18H29.349l-5.656,39.5h3.814ZM85.012,77.939A20.047,20.047,0,0,0,77.5,85.553a21.05,21.05,0,0,0-2.754,10.554,19.779,19.779,0,0,0,6.046,14.556,20.223,20.223,0,0,0,14.834,6.015,20.617,20.617,0,0,0,20.746-20.759,19.941,19.941,0,0,0-6.047-14.744A20.5,20.5,0,0,0,95.3,75.187,20.2,20.2,0,0,0,85.012,77.939Zm18.913,3.372A16.375,16.375,0,0,1,110.1,87.4a16.719,16.719,0,0,1,2.192,8.507,17.136,17.136,0,0,1-2.192,8.6,15.97,15.97,0,0,1-6.106,6.1,16.9,16.9,0,0,1-8.513,2.231,16.616,16.616,0,0,1-16.65-16.744,17.114,17.114,0,0,1,2.206-8.627,16.868,16.868,0,0,1,14.445-8.439A16.7,16.7,0,0,1,103.925,81.312Zm25.455-1.264v35.638h4.028V80.047h8.809V76.18H120.571v3.867h8.809Zm17.548,35.638h3.948V76.18h-3.948v39.5Zm12.564,0h3.948V96.3h15.845V92.428H163.44V80.047h15.845V76.18H159.492v39.5Zm27,0h3.948V96.3h15.845V92.428H190.44V80.047h15.845V76.18H186.492v39.5Z"/>
  <path id="NN" class="cls-2" d="M37.772,67.858H55.037V35.236L77.286,67.858H94.591V8.445H77.286v32.87L54.915,8.445H37.772V67.858Zm69,0h17.265V35.236l22.249,32.622h17.305V8.445H146.286v32.87L123.915,8.445H106.772V67.858Z"/>
  <path id="I" class="cls-3" d="M6.88,67.513h18.4V8.1H6.88V67.513Z"/>
  <path id="O" class="cls-3" d="M177.934,55.764A25.038,25.038,0,0,0,188.613,65.9q6.585,3.2,16.636,3.2,9.888,0,16.515-3.708A24.988,24.988,0,0,0,231.9,55.015q3.506-6.666,3.505-17.082,0-14.347-8.024-22.31T204.52,7.658q-14.469,0-22.574,8.105T173.84,38.419Q173.84,48.835,177.934,55.764ZM195.563,25.49a11.153,11.153,0,0,1,8.916-3.931,11.573,11.573,0,0,1,9.18,3.87q3.382,3.871,3.384,12.26,0,9.97-3.243,13.82t-9.159,3.85a11.317,11.317,0,0,1-9.1-3.931Q192.2,47.5,192.2,38.5,192.2,29.422,195.563,25.49Z"/>
</svg>
