<svg width="22" height="22" viewBox="0 0 22 22" fill="none" xmlns="http://www.w3.org/2000/svg">
<path d="M8.10369 2.55609C3.77195 2.55609 0.457031 5.49546 0.457031 8.69969C0.457031 11.9039 3.31909 13.7606 3.31909 13.7606L2.85394 15.5237C2.79245 15.756 3.0415 15.948 3.25057 15.8294L5.34134 14.6447C6.26593 14.939 8.228 15.033 8.41906 15.0418C8.28202 14.5666 8.21438 14.0983 8.21438 13.6613C8.21438 11.1884 10.3675 7.70526 15.1539 7.70526C15.2628 7.70526 15.3717 7.70789 15.4807 7.71228C14.8438 4.66399 11.6786 2.55609 8.10369 2.55609Z" fill="#637381"/>
<path opacity="0.48" d="M21.5411 13.2743C21.5411 10.4676 18.2482 8.41241 15.1542 8.41241C10.7785 8.41241 8.92188 11.5727 8.92188 13.6613C8.92188 15.7542 10.7781 18.9102 15.1542 18.9102C16.1223 18.9102 16.974 18.7714 17.7145 18.5254L19.3603 19.5699C19.4903 19.6525 19.6546 19.5361 19.6199 19.3859L19.2466 17.7651C20.8015 16.6819 21.5411 14.9746 21.5411 13.2743Z" fill="#637381"/>
</svg>
