<svg width="22" height="22" viewBox="0 0 22 22" fill="none" xmlns="http://www.w3.org/2000/svg">
<path fill-rule="evenodd" clip-rule="evenodd" d="M3.3 4.26251H18.7C19.7627 4.26357 20.6239 5.1248 20.625 6.18751V18.0583C20.6239 19.1211 19.7627 19.9823 18.7 19.9833H3.3C2.23729 19.9823 1.37606 19.1211 1.375 18.0583V6.18751C1.37606 5.1248 2.23729 4.26357 3.3 4.26251ZM3.3 19.3417H18.7C19.4088 19.3417 19.9833 18.7671 19.9833 18.0583V8.43335H2.01667V18.0583C2.01667 18.7671 2.59123 19.3417 3.3 19.3417Z" fill="#637381"/>
<path d="M16.4552 3.62083V2.01667C16.4552 1.66228 16.1679 1.375 15.8135 1.375C15.4592 1.375 15.1719 1.66228 15.1719 2.01667V3.62083H16.4552Z" fill="#637381"/>
<path d="M6.83021 3.62083V2.01667C6.83021 1.66228 6.54292 1.375 6.18854 1.375C5.83416 1.375 5.54688 1.66228 5.54688 2.01667V3.62083H6.83021Z" fill="#637381"/>
<path opacity="0.48" fill-rule="evenodd" clip-rule="evenodd" d="M3.94141 11.0297C3.94141 10.4774 4.38912 10.0297 4.94141 10.0297H6.79141C7.34369 10.0297 7.79141 10.4774 7.79141 11.0297V12.3297C7.79141 12.882 7.34369 13.3297 6.79141 13.3297H4.94141C4.38912 13.3297 3.94141 12.882 3.94141 12.3297V11.0297ZM3.94141 15.6132C3.94141 15.0609 4.38912 14.6132 4.94141 14.6132H6.79141C7.34369 14.6132 7.79141 15.0609 7.79141 15.6132V16.9132C7.79141 17.4655 7.34369 17.9132 6.79141 17.9132H4.94141C4.38912 17.9132 3.94141 17.4655 3.94141 16.9132V15.6132ZM10.0762 14.6132C9.52391 14.6132 9.0762 15.0609 9.0762 15.6132V16.9132C9.0762 17.4655 9.52391 17.9132 10.0762 17.9132H11.9262C12.4785 17.9132 12.9262 17.4655 12.9262 16.9132V15.6132C12.9262 15.0609 12.4785 14.6132 11.9262 14.6132H10.0762ZM9.0762 11.0297C9.0762 10.4774 9.52391 10.0297 10.0762 10.0297H11.9262C12.4785 10.0297 12.9262 10.4774 12.9262 11.0297V12.3297C12.9262 12.882 12.4785 13.3297 11.9262 13.3297H10.0762C9.52391 13.3297 9.0762 12.882 9.0762 12.3297V11.0297ZM15.211 10.0297C14.6587 10.0297 14.211 10.4774 14.211 11.0297V12.3297C14.211 12.882 14.6587 13.3297 15.211 13.3297H17.061C17.6133 13.3297 18.061 12.882 18.061 12.3297V11.0297C18.061 10.4774 17.6133 10.0297 17.061 10.0297H15.211Z" fill="#637381"/>
</svg>
