<svg width="420" height="364" viewBox="0 0 420 364" fill="none" xmlns="http://www.w3.org/2000/svg">
<rect x="0.5" y="0.5" width="419" height="363" stroke="black"/>
<path d="M338.697 54.5781C316.231 32.1118 288.247 15.9551 257.557 7.73188C226.868 -0.491356 194.554 -0.491354 163.865 7.73188C133.175 15.9551 105.191 32.1118 82.7245 54.5781C60.2582 77.0444 44.1015 105.029 35.8782 135.718L107.709 154.965C112.554 136.885 122.072 120.398 135.308 107.162C148.544 93.926 165.031 84.4073 183.112 79.5626C201.192 74.7179 220.229 74.7179 238.31 79.5626C256.391 84.4073 272.877 93.9259 286.113 107.162L338.697 54.5781Z" fill="#C4C4C4"/>
<path d="M418.247 185.746L250.107 140.694L373.194 17.6066L418.247 185.746Z" fill="#C4C4C4"/>
<path d="M81.3103 309.137C103.777 331.603 131.761 347.76 162.45 355.983C193.14 364.206 225.453 364.206 256.143 355.983C286.832 347.76 314.817 331.603 337.283 309.137C359.749 286.67 375.906 258.686 384.129 227.996L312.298 208.749C307.454 226.83 297.935 243.317 284.699 256.553C271.463 269.789 254.976 279.307 236.896 284.152C218.815 288.997 199.778 288.997 181.697 284.152C163.617 279.307 147.13 269.789 133.894 256.553L81.3103 309.137Z" fill="#C4C4C4"/>
<path d="M1.76074 177.968L169.901 223.021L46.8137 346.108L1.76074 177.968Z" fill="#C4C4C4"/>
</svg>
