<svg width="110" height="110" viewBox="0 0 110 110" fill="none" xmlns="http://www.w3.org/2000/svg">
<path d="M110 55C110 64.6545 107.459 74.1389 102.631 82.5C97.8041 90.8611 90.8611 97.8041 82.5 102.631L55 55H110Z" fill="#E7732D"/>
<path d="M110 55C110 45.3455 107.459 35.8611 102.631 27.5C97.8041 19.1389 90.8611 12.1959 82.5 7.3686L55 55H110Z" fill="#F1CA2E"/>
<path d="M82.5 7.3686C74.1389 2.54134 64.6545 -4.22012e-07 55 0C45.3455 4.22012e-07 35.8611 2.54135 27.5 7.3686L55 55L82.5 7.3686Z" fill="#1DBC54"/>
<path d="M0 55C0 64.6545 2.54134 74.1389 7.3686 82.5C12.1959 90.8611 19.1389 97.8041 27.5 102.631L55 55H0Z" fill="#E16AE6"/>
<path d="M27.5 102.631C35.8611 107.459 45.3455 110 55 110C64.6545 110 74.1389 107.459 82.5 102.631L55 55L27.5 102.631Z" fill="#C80914"/>
<path d="M0 55C0 45.3455 2.54134 35.8611 7.3686 27.5C12.1959 19.1389 19.1389 12.1959 27.5 7.3686L55 55H0Z" fill="#178CDB"/>
</svg>
