<svg width="25" height="25" viewBox="0 0 25 25" fill="none" xmlns="http://www.w3.org/2000/svg">
<path opacity="0.48" d="M7.9987 12.0833C10.0237 12.0833 11.6654 10.4417 11.6654 8.41667C11.6654 6.39162 10.0237 4.75 7.9987 4.75C5.97365 4.75 4.33203 6.39162 4.33203 8.41667C4.33203 10.4417 5.97365 12.0833 7.9987 12.0833Z" fill="#637381"/>
<path d="M13.4987 21.25C14.005 21.25 14.4154 20.8396 14.4154 20.3333C14.4154 16.7895 11.5425 13.9167 7.9987 13.9167C4.45487 13.9167 1.58203 16.7895 1.58203 20.3333C1.58203 20.8396 1.99244 21.25 2.4987 21.25H13.4987Z" fill="#637381"/>
<path d="M24 11.2857H19.2857V16H17.7143V11.2857H13V9.71429H17.7143V5H19.2857V9.71429H24V11.2857Z" fill="#637381"/>
</svg>
