<svg width="25" height="25" viewBox="0 0 25 25" fill="none" xmlns="http://www.w3.org/2000/svg">
<path opacity="0.48" d="M9.9987 12.0833C12.0237 12.0833 13.6654 10.4417 13.6654 8.41667C13.6654 6.39162 12.0237 4.75 9.9987 4.75C7.97365 4.75 6.33203 6.39162 6.33203 8.41667C6.33203 10.4417 7.97365 12.0833 9.9987 12.0833Z" fill="#637381"/>
<path opacity="0.48" d="M17.5 13C18.8807 13 20 11.8807 20 10.5C20 9.11929 18.8807 8 17.5 8C16.1193 8 15 9.11929 15 10.5C15 11.8807 16.1193 13 17.5 13Z" fill="#637381"/>
<path d="M21.3571 20C21.7122 20 22 19.7202 22 19.375C22 16.9587 19.9852 15 17.5 15C15.0147 15 13 16.9587 13 19.375C13 19.7202 13.2878 20 13.6429 20H21.3571Z" fill="#637381"/>
<path d="M16.5 20C16.5 20.2761 16.2761 20.5 16 20.5H4C3.72387 20.5 3.5 20.2762 3.5 20C3.5 16.4101 6.41014 13.5 9.99998 13.5C13.5898 13.5 16.5 16.4101 16.5 20Z" fill="#637381" stroke="white"/>
</svg>
