<svg width="96" height="96" viewBox="0 0 96 96" fill="none" xmlns="http://www.w3.org/2000/svg">
<path d="M87.3333 48.8864C90.6342 47.7682 93 44.7409 93 41.1818C93 36.6682 89.1892 33 84.5 33C79.8108 33 76 36.6682 76 41.1818C76 44.7409 78.3658 47.7682 81.6667 48.8864V54.8182H76V60.2727H81.6667V63H87.3333V48.8864ZM81.6667 41.1818C81.6667 39.6818 82.9417 38.4545 84.5 38.4545C86.0583 38.4545 87.3333 39.6818 87.3333 41.1818C87.3333 42.6818 86.0583 43.9091 84.5 43.9091C82.9417 43.9091 81.6667 42.6818 81.6667 41.1818Z" fill="#637381"/>
<path d="M52 33L60.015 41.015L42.935 58.095L28.935 44.095L3 70.065L7.935 75L28.935 54L42.935 68L64.985 45.985L73 54V33H52Z" fill="#637381"/>
</svg>
