<svg width="62" height="62" viewBox="0 0 62 62" fill="none" xmlns="http://www.w3.org/2000/svg">
<g clip-path="url(#clip0_1908_177)">
<path d="M36.1667 32.6791C42.1858 30.5608 46.5 24.8258 46.5 18.0833C46.5 9.53248 39.5508 2.58331 31 2.58331C22.4492 2.58331 15.5 9.53248 15.5 18.0833C15.5 24.8258 19.8142 30.5608 25.8333 32.6791L25.8333 43.9166L15.5 43.9166L15.5 54.25L25.8333 54.25L25.8333 59.4166L36.1667 59.4166L36.1667 32.6791ZM25.8333 18.0833C25.8333 15.2416 28.1583 12.9166 31 12.9166C33.8417 12.9166 36.1667 15.2416 36.1667 18.0833C36.1667 20.925 33.8417 23.25 31 23.25C28.1583 23.25 25.8333 20.925 25.8333 18.0833Z" fill="#637381"/>
</g>
<defs>
<clipPath id="clip0_1908_177">
<rect width="62" height="62" fill="white" transform="translate(62) rotate(90)"/>
</clipPath>
</defs>
</svg>
