<svg width="96" height="96" viewBox="0 0 96 96" fill="none" xmlns="http://www.w3.org/2000/svg">
<path d="M84.3333 23.8864C87.6342 22.7682 90 19.7409 90 16.1818C90 11.6682 86.1892 8 81.5 8C76.8108 8 73 11.6682 73 16.1818C73 19.7409 75.3658 22.7682 78.6667 23.8864V29.8182H73V35.2727H78.6667V38H84.3333V23.8864ZM78.6667 16.1818C78.6667 14.6818 79.9417 13.4545 81.5 13.4545C83.0583 13.4545 84.3333 14.6818 84.3333 16.1818C84.3333 17.6818 83.0583 18.9091 81.5 18.9091C79.9417 18.9091 78.6667 17.6818 78.6667 16.1818Z" fill="#637381"/>
<path d="M29 83C29 85.2 30.8 87 33 87H49C51.2 87 53 85.2 53 83V79H29V83ZM41 7C25.56 7 13 19.56 13 35C13 44.52 17.76 52.88 25 57.96V67C25 69.2 26.8 71 29 71H53C55.2 71 57 69.2 57 67V57.96C64.24 52.88 69 44.52 69 35C69 19.56 56.44 7 41 7ZM49 53.8V63H33V53.8C26.92 49.52 21 45.12 21 35C21 23.96 29.96 15 41 15C52.04 15 61 23.96 61 35C61 44.96 54.96 49.6 49 53.8Z" fill="#637381"/>
</svg>
