<svg width="96" height="96" viewBox="0 0 96 96" fill="none" xmlns="http://www.w3.org/2000/svg">
<path d="M87.3333 28.8864C90.6342 27.7682 93 24.7409 93 21.1818C93 16.6682 89.1892 13 84.5 13C79.8108 13 76 16.6682 76 21.1818C76 24.7409 78.3658 27.7682 81.6667 28.8864V34.8182H76V40.2727H81.6667V43H87.3333V28.8864ZM81.6667 21.1818C81.6667 19.6818 82.9417 18.4545 84.5 18.4545C86.0583 18.4545 87.3333 19.6818 87.3333 21.1818C87.3333 22.6818 86.0583 23.9091 84.5 23.9091C82.9417 23.9091 81.6667 22.6818 81.6667 21.1818Z" fill="#637381"/>
<path d="M9.9 26.8H3V75.1C3 78.895 6.105 82 9.9 82H58.2V75.1H9.9V26.8ZM65.1 13H23.7C19.905 13 16.8 16.105 16.8 19.9V61.3C16.8 65.095 19.905 68.2 23.7 68.2H65.1C68.895 68.2 72 65.095 72 61.3V19.9C72 16.105 68.895 13 65.1 13ZM61.65 44.05H27.15V37.15H61.65V44.05ZM47.85 57.85H27.15V50.95H47.85V57.85ZM61.65 30.25H27.15V23.35H61.65V30.25Z" fill="#637381"/>
</svg>
