<svg width="96" height="96" viewBox="0 0 96 96" fill="none" xmlns="http://www.w3.org/2000/svg">
<path d="M87.3333 20.8864C90.6342 19.7682 93 16.7409 93 13.1818C93 8.66818 89.1892 5 84.5 5C79.8108 5 76 8.66818 76 13.1818C76 16.7409 78.3658 19.7682 81.6667 20.8864V26.8182H76V32.2727H81.6667V35H87.3333V20.8864ZM81.6667 13.1818C81.6667 11.6818 82.9417 10.4545 84.5 10.4545C86.0583 10.4545 87.3333 11.6818 87.3333 13.1818C87.3333 14.6818 86.0583 15.9091 84.5 15.9091C82.9417 15.9091 81.6667 14.6818 81.6667 13.1818Z" fill="#637381"/>
<path d="M37.7 67.8H44.3V61.2H37.7V67.8ZM41 15C22.784 15 8 29.784 8 48C8 66.216 22.784 81 41 81C59.216 81 74 66.216 74 48C74 29.784 59.216 15 41 15ZM41 74.4C26.447 74.4 14.6 62.553 14.6 48C14.6 33.447 26.447 21.6 41 21.6C55.553 21.6 67.4 33.447 67.4 48C67.4 62.553 55.553 74.4 41 74.4ZM41 28.2C33.707 28.2 27.8 34.107 27.8 41.4H34.4C34.4 37.77 37.37 34.8 41 34.8C44.63 34.8 47.6 37.77 47.6 41.4C47.6 48 37.7 47.175 37.7 57.9H44.3C44.3 50.475 54.2 49.65 54.2 41.4C54.2 34.107 48.293 28.2 41 28.2Z" fill="#637381"/>
</svg>
