<svg width="30" height="43" viewBox="0 0 30 43" fill="none" xmlns="http://www.w3.org/2000/svg">
<path d="M15.9797 8.69654C10.8115 8.7155 8.4076 14.8982 7.85165 17.9871L7.74609 27.2066C8.44279 24.1335 11.0649 17.9871 15.9797 17.9871H21.9755V8.69654C18.6609 8.69654 21.1479 8.67758 15.9797 8.69654Z" fill="#00AB55"/>
<path d="M15.9797 8.69654C10.8115 8.7155 8.4076 14.8982 7.85165 17.9871L7.74609 27.2066C8.44279 24.1335 11.0649 17.9871 15.9797 17.9871H21.9755V8.69654C18.6609 8.69654 21.1479 8.67758 15.9797 8.69654Z" fill="url(#paint0_linear_1210_171)"/>
<path d="M14.0164 34.8061C19.1846 34.7871 21.5885 28.6045 22.1444 25.5155L22.25 16.296C21.5533 19.3692 18.9312 25.5155 14.0164 25.5155L8.02059 25.5155L8.02059 34.8061C11.3352 34.8061 8.84817 34.825 14.0164 34.8061Z" fill="#00AB55"/>
<path d="M14.0164 34.8061C19.1846 34.7871 21.5885 28.6045 22.1444 25.5155L22.25 16.296C21.5533 19.3692 18.9312 25.5155 14.0164 25.5155L8.02059 25.5155L8.02059 34.8061C11.3352 34.8061 8.84817 34.825 14.0164 34.8061Z" fill="url(#paint1_linear_1210_171)"/>
<path d="M0 8.69653V42.5408H8.23364V8.69653H0Z" fill="#00AB55"/>
<path d="M30 34.8061L30 0.961803L21.7664 0.961803L21.7664 34.8061L30 34.8061Z" fill="#00AB55"/>
<defs>
<linearGradient id="paint0_linear_1210_171" x1="21.9122" y1="17.9397" x2="8.23167" y2="17.9397" gradientUnits="userSpaceOnUse">
<stop stop-color="white" stop-opacity="0.76"/>
<stop offset="1" stop-color="white" stop-opacity="0"/>
</linearGradient>
<linearGradient id="paint1_linear_1210_171" x1="8.08392" y1="25.5629" x2="21.7644" y2="25.5629" gradientUnits="userSpaceOnUse">
<stop stop-color="white" stop-opacity="0.76"/>
<stop offset="1" stop-color="white" stop-opacity="0"/>
</linearGradient>
</defs>
</svg>
