<svg width="20" height="22" viewBox="0 0 20 22" fill="none" xmlns="http://www.w3.org/2000/svg">
<path d="M8 7H10V13H8V7ZM12 0H6V2H12V0ZM9 19C5.13 19 2 15.87 2 12C2 8.13 5.13 5 9 5C12.87 5 16 8.13 16 12C16.7 12 17.36 12.13 18 12.35C18 12.23 18 12.12 18 12C18 9.88 17.26 7.93 16.03 6.39L17.45 4.97C17 4.46 16.55 4 16.04 3.56L14.62 5C13.07 3.74 11.12 3 9 3C4.03 3 0 7.03 0 12C0 16.97 4.03 21 9 21C9.59 21 10.16 20.94 10.71 20.83C10.4 20.25 10.18 19.6 10.08 18.91C9.72 18.96 9.37 19 9 19ZM17 17V14H15V17H12V19H15V22H17V19H20V17H17Z" fill="#637381"/>
</svg>
