<svg width="96" height="96" viewBox="0 0 96 96" fill="none" xmlns="http://www.w3.org/2000/svg">
<path d="M44.7 67.8H51.3V61.2H44.7V67.8ZM48 15C29.784 15 15 29.784 15 48C15 66.216 29.784 81 48 81C66.216 81 81 66.216 81 48C81 29.784 66.216 15 48 15ZM48 74.4C33.447 74.4 21.6 62.553 21.6 48C21.6 33.447 33.447 21.6 48 21.6C62.553 21.6 74.4 33.447 74.4 48C74.4 62.553 62.553 74.4 48 74.4ZM48 28.2C40.707 28.2 34.8 34.107 34.8 41.4H41.4C41.4 37.77 44.37 34.8 48 34.8C51.63 34.8 54.6 37.77 54.6 41.4C54.6 48 44.7 47.175 44.7 57.9H51.3C51.3 50.475 61.2 49.65 61.2 41.4C61.2 34.107 55.293 28.2 48 28.2Z" fill="#637381"/>
</svg>
