<svg width="22" height="22" viewBox="0 0 22 22" fill="none" xmlns="http://www.w3.org/2000/svg">
<path fill-rule="evenodd" clip-rule="evenodd" d="M17.554 9.55161L18.6815 7.85577L18.6907 7.84661C20.5647 10.7367 20.6603 14.4335 18.9382 17.4166C18.6094 17.9861 18.0008 18.3359 17.3432 18.3333H4.64735C3.99632 18.3293 3.3962 17.9804 3.07069 17.4166C0.976248 13.752 1.65498 9.13083 4.71472 6.2232C7.77447 3.31557 12.4242 2.87317 15.9774 5.15161L14.2815 6.27911C11.3866 4.83096 7.88463 5.45213 5.66438 7.80758C3.44412 10.163 3.03081 13.6956 4.64735 16.4999H17.3524C18.5828 14.3648 18.6585 11.7545 17.554 9.55161ZM11.0044 14.6635C10.5179 14.6635 10.0512 14.47 9.70735 14.1258C9.3631 13.7819 9.16966 13.3153 9.16966 12.8287C9.16966 12.3421 9.3631 11.8755 9.70735 11.5316L17.4899 6.34327L12.3015 14.1258C11.9576 14.47 11.491 14.6635 11.0044 14.6635Z" fill="#637381"/>
</svg>
