<svg width="106" height="106" viewBox="0 0 106 106" fill="none" xmlns="http://www.w3.org/2000/svg">
<path d="M90 53C90 73.4345 73.4345 90 53 90C32.5655 90 16 73.4345 16 53C16 32.5655 32.5655 16 53 16C73.4345 16 90 32.5655 90 53ZM30.8 53C30.8 65.2607 40.7393 75.2 53 75.2C65.2607 75.2 75.2 65.2607 75.2 53C75.2 40.7393 65.2607 30.8 53 30.8C40.7393 30.8 30.8 40.7393 30.8 53Z" fill="#637381"/>
<path d="M63 53C63 58.5228 58.5228 63 53 63C47.4772 63 43 58.5228 43 53C43 47.4772 47.4772 43 53 43C58.5228 43 63 47.4772 63 53Z" fill="#637381"/>
<path d="M50 2C50 0.895431 50.8954 0 52 0H55C56.1046 0 57 0.895431 57 2V17C57 18.1046 56.1046 19 55 19H52C50.8954 19 50 18.1046 50 17V2Z" fill="#637381"/>
<path d="M50 88.5C50 87.3954 50.8954 86.5 52 86.5H55C56.1046 86.5 57 87.3954 57 88.5V103.5C57 104.605 56.1046 105.5 55 105.5H52C50.8954 105.5 50 104.605 50 103.5V88.5Z" fill="#637381"/>
<path d="M89 56.5C87.8954 56.5 87 55.6046 87 54.5V51.5C87 50.3954 87.8954 49.5 89 49.5H104C105.105 49.5 106 50.3954 106 51.5V54.5C106 55.6046 105.105 56.5 104 56.5H89Z" fill="#637381"/>
<path d="M2 56.5C0.895431 56.5 1.79417e-07 55.6046 1.31135e-07 54.5L0 51.5C-4.82823e-08 50.3954 0.89543 49.5 2 49.5H17C18.1046 49.5 19 50.3954 19 51.5V54.5C19 55.6046 18.1046 56.5 17 56.5H2Z" fill="#637381"/>
</svg>
