<svg width="34" height="22" viewBox="0 0 34 22" fill="none" xmlns="http://www.w3.org/2000/svg">
<path opacity="0.48" d="M25.5013 10.7917C27.0661 10.7917 28.3346 9.52314 28.3346 7.95833C28.3346 6.39353 27.0661 5.125 25.5013 5.125C23.9365 5.125 22.668 6.39353 22.668 7.95833C22.668 9.52314 23.9365 10.7917 25.5013 10.7917Z" fill="#637381"/>
<path d="M29.7513 17.875C30.1425 17.875 30.4596 17.5578 30.4596 17.1666C30.4596 14.4282 28.2397 12.2083 25.5013 12.2083C22.7629 12.2083 20.543 14.4282 20.543 17.1666C20.543 17.5578 20.8601 17.875 21.2513 17.875H29.7513Z" fill="#637381"/>
<path opacity="0.48" d="M8.5013 10.7917C10.0661 10.7917 11.3346 9.52314 11.3346 7.95833C11.3346 6.39353 10.0661 5.125 8.5013 5.125C6.9365 5.125 5.66797 6.39353 5.66797 7.95833C5.66797 9.52314 6.9365 10.7917 8.5013 10.7917Z" fill="#637381"/>
<path d="M12.7513 17.875C13.1425 17.875 13.4596 17.5578 13.4596 17.1666C13.4596 14.4282 11.2397 12.2083 8.5013 12.2083C5.76289 12.2083 3.54297 14.4282 3.54297 17.1666C3.54297 17.5578 3.8601 17.875 4.2513 17.875H12.7513Z" fill="#637381"/>
<path opacity="0.48" d="M16.9987 10.0833C19.0237 10.0833 20.6654 8.44171 20.6654 6.41667C20.6654 4.39162 19.0237 2.75 16.9987 2.75C14.9737 2.75 13.332 4.39162 13.332 6.41667C13.332 8.44171 14.9737 10.0833 16.9987 10.0833Z" fill="#637381"/>
<path d="M22.4987 19.25C23.005 19.25 23.4154 18.8396 23.4154 18.3334C23.4154 14.7895 20.5425 11.9167 16.9987 11.9167C13.4549 11.9167 10.582 14.7895 10.582 18.3334C10.582 18.8396 10.9924 19.25 11.4987 19.25H22.4987Z" fill="#637381" stroke="white"/>
</svg>
