<svg width="25" height="25" viewBox="0 0 25 25" fill="none" xmlns="http://www.w3.org/2000/svg">
<g clip-path="url(#clip0_2131_202)">
<path d="M22.367 12.0092C22.3887 11.8467 22.3995 11.6788 22.3995 11.5C22.3995 11.3267 22.3887 11.1534 22.3616 10.9909L23.4612 10.135C23.5587 10.0592 23.5857 9.91297 23.5262 9.80463L22.4862 8.0063C22.4212 7.88713 22.2857 7.84922 22.1666 7.88713L20.872 8.40713C20.6012 8.2013 20.3141 8.02797 19.9945 7.89797L19.7995 6.52213C19.7778 6.39213 19.6695 6.30005 19.5395 6.30005H17.4595C17.3295 6.30005 17.2266 6.39213 17.2049 6.52213L17.0099 7.89797C16.6903 8.02797 16.3978 8.20672 16.1324 8.40713L14.8378 7.88713C14.7187 7.8438 14.5832 7.88713 14.5182 8.0063L13.4837 9.80463C13.4187 9.91838 13.4403 10.0592 13.5487 10.135L14.6482 10.9909C14.6212 11.1534 14.5995 11.3321 14.5995 11.5C14.5995 11.668 14.6103 11.8467 14.6374 12.0092L13.5378 12.865C13.4403 12.9409 13.4132 13.0871 13.4728 13.1955L14.5128 14.9938C14.5778 15.113 14.7132 15.1509 14.8324 15.113L16.127 14.593C16.3978 14.7988 16.6849 14.9721 17.0045 15.1021L17.1995 16.478C17.2266 16.608 17.3295 16.7 17.4595 16.7H19.5395C19.6695 16.7 19.7778 16.608 19.7941 16.478L19.9891 15.1021C20.3087 14.9721 20.6012 14.7988 20.8666 14.593L22.1612 15.113C22.2803 15.1563 22.4157 15.113 22.4807 14.9938L23.5207 13.1955C23.5857 13.0763 23.5587 12.9409 23.4557 12.865L22.367 12.0092ZM18.4995 13.45C17.427 13.45 16.5495 12.5725 16.5495 11.5C16.5495 10.4275 17.427 9.55005 18.4995 9.55005C19.572 9.55005 20.4495 10.4275 20.4495 11.5C20.4495 12.5725 19.572 13.45 18.4995 13.45Z" fill="#637382"/>
</g>
<path opacity="0.48" d="M7.9987 12.0833C10.0237 12.0833 11.6654 10.4417 11.6654 8.41667C11.6654 6.39162 10.0237 4.75 7.9987 4.75C5.97365 4.75 4.33203 6.39162 4.33203 8.41667C4.33203 10.4417 5.97365 12.0833 7.9987 12.0833Z" fill="#637381"/>
<path d="M13.4987 21.25C14.005 21.25 14.4154 20.8396 14.4154 20.3333C14.4154 16.7895 11.5425 13.9167 7.9987 13.9167C4.45487 13.9167 1.58203 16.7895 1.58203 20.3333C1.58203 20.8396 1.99244 21.25 2.4987 21.25H13.4987Z" fill="#637381"/>
<defs>
<clipPath id="clip0_2131_202">
<rect width="13" height="13" fill="white" transform="translate(12 5)"/>
</clipPath>
</defs>
</svg>
