<svg width="864" height="1117" viewBox="0 0 864 1117" fill="none" xmlns="http://www.w3.org/2000/svg">
<mask id="mask0_1407_188" style="mask-type:alpha" maskUnits="userSpaceOnUse" x="0" y="0" width="864" height="1117">
<rect width="864" height="1117" fill="white"/>
</mask>
<g mask="url(#mask0_1407_188)">
<rect width="864" height="1117" fill="url(#paint0_linear_1407_188)"/>
<path d="M574.472 907.125C543.756 907.125 520.25 927.968 520.25 950.689C520.25 973.41 540.545 986.575 540.545 986.575L537.246 999.077C536.81 1000.72 538.576 1002.09 540.059 1001.24L554.884 992.845C561.44 994.931 575.353 995.598 576.708 995.66C575.736 992.29 575.257 988.97 575.257 985.871C575.257 968.336 590.524 943.637 624.464 943.637C625.236 943.637 626.009 943.656 626.781 943.687C622.265 922.072 599.821 907.125 574.472 907.125Z" fill="white" fill-opacity="0.6"/>
<path opacity="0.48" d="M669.752 983.127C669.752 963.225 646.401 948.652 624.462 948.652C593.435 948.652 580.27 971.061 580.27 985.871C580.27 1000.71 593.432 1023.09 624.462 1023.09C631.327 1023.09 637.366 1022.11 642.617 1020.36L654.288 1027.77C655.21 1028.35 656.374 1027.53 656.128 1026.46L653.481 1014.97C664.507 1007.29 669.752 995.184 669.752 983.127Z" fill="white" fill-opacity="0.6"/>
<path d="M366.408 1016.31L373.815 1018.3L367.903 1040.36L360.496 1038.38L366.408 1016.31ZM388.119 994.544L365.897 988.59L363.927 995.944L386.148 1001.9L388.119 994.544ZM358.288 1061.43C343.955 1057.59 335.447 1042.97 339.26 1028.74C343.073 1014.51 357.749 1006.11 372.082 1009.95C386.415 1013.79 394.923 1028.41 391.11 1042.64C393.703 1043.33 396.019 1044.47 398.172 1045.91C398.291 1045.47 398.399 1045.06 398.517 1044.62C400.606 1036.83 399.787 1028.92 396.748 1022.04L403.407 1018.23C402.242 1015.91 401.029 1013.77 399.574 1011.64L392.896 1015.53C388.397 1009.36 381.904 1004.7 374.052 1002.6C355.645 997.666 336.749 1008.49 331.853 1026.76C326.956 1045.03 337.911 1063.85 356.318 1068.78C358.503 1069.37 360.673 1069.71 362.818 1069.86C362.242 1067.42 362.067 1064.81 362.377 1062.17C360.994 1062 359.659 1061.8 358.288 1061.43ZM389.887 1062.02L392.843 1050.98L385.436 1049L382.48 1060.03L371.369 1057.05L369.399 1064.41L380.51 1067.38L377.554 1078.42L384.961 1080.4L387.917 1069.37L399.028 1072.35L400.998 1064.99L389.887 1062.02Z" fill="white" fill-opacity="0.4"/>
<circle cx="824" cy="58" r="288" fill="white" fill-opacity="0.4"/>
<circle cx="59.5" cy="1044.5" r="91.5" fill="white" fill-opacity="0.3"/>
<circle cx="288.5" cy="546.5" r="160.5" fill="white" fill-opacity="0.35"/>
<path d="M306.311 145.074C285.985 150.566 280.272 172.466 289.72 185.906L254.121 247.869C249.69 247.612 244.27 249.077 240.571 251.531L195.821 225.821C197.213 209.451 181.246 193.41 160.921 198.903C141.951 204.029 134.882 226.295 144.33 239.735L98.4773 317.554C82.4737 317.517 66.4329 333.484 71.9255 353.809C75.9534 368.714 91.444 377.614 106.349 373.586C125.319 368.459 132.388 346.194 122.94 332.753L167.072 253.945C171.503 254.202 176.923 252.737 180.622 250.283L225.372 275.993C224.969 290.642 241.302 308.038 261.627 302.545C281.952 297.053 287.666 275.153 278.218 261.713L313.816 199.75C329.82 199.787 345.861 183.821 340.734 164.851C336.706 149.946 321.216 141.046 306.311 145.074ZM228.672 180.594L233.177 148.843L258.337 128.959L226.586 124.453L206.701 99.2936L202.196 131.044L177.036 150.929L208.787 155.435L228.672 180.594ZM80.1689 249.804L79.6205 220.873L104.89 206.774L75.9588 207.323L61.8604 182.053L62.4087 210.984L37.1393 225.083L66.0704 224.535L80.1689 249.804Z" fill="white" fill-opacity="0.6"/>
<path d="M778.53 1044.18C782.138 1043.21 785.98 1043.71 789.212 1045.57C792.443 1047.42 794.8 1050.49 795.762 1054.08C796.724 1057.67 796.214 1061.5 794.344 1064.72C792.473 1067.94 789.396 1070.3 785.788 1071.26C782.18 1072.23 778.338 1071.73 775.106 1069.88C771.875 1068.02 769.518 1064.96 768.556 1061.37C767.594 1057.78 768.104 1053.95 769.974 1050.72C771.845 1047.5 774.923 1045.15 778.53 1044.18ZM780.345 1050.95C778.541 1051.43 777.002 1052.61 776.067 1054.22C775.131 1055.83 774.876 1057.75 775.357 1059.54C775.839 1061.34 777.017 1062.87 778.633 1063.8C780.248 1064.73 782.169 1064.98 783.973 1064.49C785.777 1064.01 787.316 1062.83 788.251 1061.22C789.187 1059.61 789.442 1057.7 788.961 1055.9C788.479 1054.1 787.301 1052.57 785.685 1051.65C784.07 1050.72 782.149 1050.47 780.345 1050.95ZM784.429 1093.4C783.579 1093.63 782.702 1093.21 782.348 1092.43L778.686 1083.8C776.316 1083.53 774.171 1082.87 772.04 1081.99L764.489 1087.68C763.813 1088.15 762.822 1088.12 762.215 1087.49L752.274 1077.6C751.632 1076.97 751.592 1076 752.102 1075.32L757.771 1067.78L756.653 1064.56L755.984 1061.11L747.33 1057.51C746.548 1057.18 746.099 1056.32 746.341 1055.45L750.004 1041.92C750.212 1041.06 751.049 1040.51 751.879 1040.62L761.254 1041.73C762.668 1039.94 764.196 1038.3 766.112 1036.87L764.966 1027.57C764.885 1026.72 765.435 1025.92 766.286 1025.69L779.889 1022.04C780.739 1021.82 781.616 1022.23 781.97 1023.01L785.632 1031.64C788.002 1031.92 790.147 1032.58 792.269 1033.42L799.829 1027.77C800.496 1027.26 801.496 1027.32 802.103 1027.96L812.044 1037.85C812.686 1038.48 812.726 1039.44 812.216 1040.12L806.519 1047.57L807.665 1050.89L808.334 1054.34L816.988 1057.93C817.77 1058.27 818.219 1059.13 817.977 1059.99L814.314 1073.53C814.106 1074.38 813.269 1074.93 812.439 1074.83L803.064 1073.71C801.65 1075.51 800.122 1077.15 798.206 1078.57L799.352 1087.88C799.433 1088.73 798.883 1089.53 798.032 1089.76L784.429 1093.4ZM772.351 1031.32L773.46 1040.49C769.606 1042.43 766.582 1045.57 764.771 1049.28L755.632 1047.96L754.26 1053.04L762.842 1056.37C762.543 1060.69 763.695 1064.99 766.108 1068.55L760.314 1075.77L764.043 1079.49L771.364 1073.75C774.781 1076.03 778.932 1077.24 783.197 1076.97L786.832 1085.5L792.001 1084.12L790.892 1074.94C794.712 1073.01 797.702 1069.89 799.522 1066.21L808.73 1067.51L810.101 1062.43L801.485 1059.11C801.784 1054.79 800.632 1050.49 798.21 1046.89L803.98 1039.72L800.25 1036L792.997 1041.72C789.571 1039.41 785.386 1038.21 781.087 1038.49L777.452 1029.95L772.351 1031.32Z" fill="white" fill-opacity="0.5"/>
<path d="M792.773 745.091H824V765.909H792.773V745.091ZM595 745.091H626.227V765.909H595V745.091ZM719.909 641V672.227H699.091V641H719.909ZM635.804 667.023L657.975 689.298L643.194 703.975L621.023 681.908L635.804 667.023ZM761.025 689.194L783.092 667.023L797.977 681.908L775.806 703.975L761.025 689.194ZM709.5 693.045C726.064 693.045 741.95 699.625 753.662 711.338C765.375 723.05 771.955 738.936 771.955 755.5C771.955 778.608 759.36 798.802 740.727 809.627V828.364C740.727 831.124 739.631 833.772 737.679 835.724C735.726 837.676 733.079 838.773 730.318 838.773H688.682C685.921 838.773 683.274 837.676 681.321 835.724C679.369 833.772 678.273 831.124 678.273 828.364V809.627C659.64 798.802 647.045 778.608 647.045 755.5C647.045 738.936 653.625 723.05 665.338 711.338C677.05 699.625 692.936 693.045 709.5 693.045ZM730.318 849.182V859.591C730.318 862.352 729.222 864.999 727.269 866.951C725.317 868.903 722.67 870 719.909 870H699.091C696.33 870 693.683 868.903 691.731 866.951C689.778 864.999 688.682 862.352 688.682 859.591V849.182H730.318ZM699.091 817.955H719.909V795.783C737.917 791.203 751.136 774.861 751.136 755.5C751.136 744.457 746.75 733.867 738.941 726.059C731.133 718.25 720.543 713.864 709.5 713.864C698.457 713.864 687.867 718.25 680.059 726.059C672.25 733.867 667.864 744.457 667.864 755.5C667.864 774.861 681.083 791.203 699.091 795.783V817.955Z" fill="white" fill-opacity="0.7"/>
</g>
<defs>
<linearGradient id="paint0_linear_1407_188" x1="864" y1="558" x2="-2.77919e-05" y2="558" gradientUnits="userSpaceOnUse">
<stop stop-color="#4FD55A"/>
<stop offset="1" stop-color="#5665EE"/>
</linearGradient>
</defs>
</svg>
