<svg width="864" height="1117" viewBox="0 0 864 1117" fill="none" xmlns="http://www.w3.org/2000/svg">
<mask id="mask0_1407_184" style="mask-type:alpha" maskUnits="userSpaceOnUse" x="0" y="0" width="864" height="1117">
<rect width="864" height="1117" fill="white"/>
</mask>
<g mask="url(#mask0_1407_184)">
<g opacity="0.3">
<path d="M111.012 427.506C105.932 426 101.949 430.698 100.593 433.235L98.0692 441.265C99.5599 438.783 103.748 434.182 108.573 435.63L114.46 437.397L116.899 429.273C113.644 428.296 116.091 429.013 111.012 427.506Z" fill="#00AB55"/>
<path d="M111.012 427.506C105.932 426 101.949 430.698 100.593 433.235L98.0692 441.265C99.5599 438.783 103.748 434.182 108.573 435.63L114.46 437.397L116.899 429.273C113.644 428.296 116.091 429.013 111.012 427.506Z" fill="url(#paint0_linear_1407_184)"/>
<path d="M102.231 449.758C107.31 451.265 111.293 446.567 112.65 444.03L115.173 435.999C113.682 438.481 109.495 443.083 104.669 441.634L98.7821 439.867L96.3437 447.991C99.598 448.968 97.1512 448.252 102.231 449.758Z" fill="#00AB55"/>
<path d="M102.231 449.758C107.31 451.265 111.293 446.567 112.65 444.03L115.173 435.999C113.682 438.481 109.495 443.083 104.669 441.634L98.7821 439.867L96.3437 447.991C99.598 448.968 97.1512 448.252 102.231 449.758Z" fill="url(#paint1_linear_1407_184)"/>
<path d="M95.3203 422.796L86.4373 452.391L94.5215 454.817L103.404 425.223L95.3203 422.796Z" fill="#00AB55"/>
<path d="M117.926 454.469L126.809 424.874L118.725 422.448L109.842 452.042L117.926 454.469Z" fill="#00AB55"/>
</g>
<g opacity="0.5">
<path d="M752.371 402.497C736.906 409.28 736.874 428.912 738.792 437.881L749.172 462.624C747.694 453.514 748.421 433.695 763.15 427.292L781.117 419.482L770.339 394.687C760.406 399.004 767.837 395.714 752.371 402.497Z" fill="#00AB55"/>
<path d="M752.371 402.497C736.906 409.28 736.874 428.912 738.792 437.881L749.172 462.624C747.694 453.514 748.421 433.695 763.15 427.292L781.117 419.482L770.339 394.687C760.406 399.004 767.837 395.714 752.371 402.497Z" fill="url(#paint2_linear_1407_184)"/>
<path d="M776.777 474.738C792.243 467.955 792.274 448.323 790.356 439.354L779.977 414.611C781.454 423.721 780.727 443.54 765.999 449.943L748.031 457.753L758.81 482.548C768.742 478.231 761.312 481.521 776.777 474.738Z" fill="#00AB55"/>
<path d="M776.777 474.738C792.243 467.955 792.274 448.323 790.356 439.354L779.977 414.611C781.454 423.721 780.727 443.54 765.999 449.943L748.031 457.753L758.81 482.548C768.742 478.231 761.312 481.521 776.777 474.738Z" fill="url(#paint3_linear_1407_184)"/>
<path d="M704.477 423.316L743.741 513.641L768.415 502.916L729.15 412.59L704.477 423.316Z" fill="#00AB55"/>
<path d="M824.672 453.918L785.408 363.592L760.734 374.318L799.998 464.644L824.672 453.918Z" fill="#00AB55"/>
</g>
<path d="M401 1098C401 1237.73 287.728 1351 148 1351C8.27196 1351 -105 1237.73 -105 1098C-105 958.272 8.27196 845 148 845C287.728 845 401 958.272 401 1098Z" fill="url(#paint4_linear_1407_184)"/>
<circle cx="74" cy="21" r="147" fill="url(#paint5_linear_1407_184)" fill-opacity="0.6"/>
<circle cx="767" cy="115" r="25" fill="url(#paint6_linear_1407_184)" fill-opacity="0.3"/>
<circle cx="732" cy="770" r="73" fill="url(#paint7_linear_1407_184)" fill-opacity="0.4"/>
</g>
<defs>
<linearGradient id="paint0_linear_1407_184" x1="114.41" y1="437.337" x2="100.978" y2="433.305" gradientUnits="userSpaceOnUse">
<stop stop-color="white" stop-opacity="0.76"/>
<stop offset="1" stop-color="white" stop-opacity="0"/>
</linearGradient>
<linearGradient id="paint1_linear_1407_184" x1="98.8319" y1="439.928" x2="112.264" y2="443.959" gradientUnits="userSpaceOnUse">
<stop stop-color="white" stop-opacity="0.76"/>
<stop offset="1" stop-color="white" stop-opacity="0"/>
</linearGradient>
<linearGradient id="paint2_linear_1407_184" x1="780.872" y1="419.438" x2="739.876" y2="437.259" gradientUnits="userSpaceOnUse">
<stop stop-color="white" stop-opacity="0.76"/>
<stop offset="1" stop-color="white" stop-opacity="0"/>
</linearGradient>
<linearGradient id="paint3_linear_1407_184" x1="748.276" y1="457.797" x2="789.273" y2="439.976" gradientUnits="userSpaceOnUse">
<stop stop-color="white" stop-opacity="0.76"/>
<stop offset="1" stop-color="white" stop-opacity="0"/>
</linearGradient>
<linearGradient id="paint4_linear_1407_184" x1="531.962" y1="1121.1" x2="26.5631" y2="1121.1" gradientUnits="userSpaceOnUse">
<stop stop-color="#5665EE"/>
<stop offset="0.635417" stop-color="#2E85A7"/>
<stop offset="1" stop-color="#00AB55"/>
</linearGradient>
<linearGradient id="paint5_linear_1407_184" x1="220.651" y1="21.3492" x2="-73" y2="21.3492" gradientUnits="userSpaceOnUse">
<stop stop-color="#5665EE"/>
<stop offset="1" stop-color="#00AB55"/>
</linearGradient>
<linearGradient id="paint6_linear_1407_184" x1="791.941" y1="115.059" x2="742" y2="115.059" gradientUnits="userSpaceOnUse">
<stop stop-color="#5665EE"/>
<stop offset="1" stop-color="#00AB55"/>
</linearGradient>
<linearGradient id="paint7_linear_1407_184" x1="804.827" y1="770.173" x2="659" y2="770.173" gradientUnits="userSpaceOnUse">
<stop stop-color="#5665EE"/>
<stop offset="1" stop-color="#00AB55"/>
</linearGradient>
</defs>
</svg>
