<svg width="543" height="150" viewBox="0 0 543 150" fill="none" xmlns="http://www.w3.org/2000/svg">
<path d="M3.64 102.712C3.64 91.48 8.392 72.76 15.304 57.064C19.912 46.84 22.36 41.368 27.976 33.304C35.752 22.36 38.056 16.6 34.888 19.192C28.84 24.52 20.776 36.472 13.576 52.456C4.648 72.616 0.76 90.904 0.76 102.712C0.76 113.08 4.36 118.264 9.4 118.264C14.728 118.264 22.648 99.256 26.536 91.48C29.992 84.28 36.04 71.896 38.2 71.896C39.496 71.896 39.496 73.912 39.208 78.952C38.344 90.184 31.864 110.776 29.992 127.192C28.84 136.696 29.704 149.224 39.784 149.224C49.72 149.224 63.112 134.824 74.92 111.64C87.304 87.016 97.528 56.056 97.528 25.24C97.528 5.224 94.072 0.471998 91.624 0.183993C89.032 0.0399952 87.016 3.928 90.04 2.91999C93.064 1.912 94.648 6.95199 94.648 25.384C94.648 44.536 85.576 81.832 72.328 108.328C59.08 134.824 43.96 146.776 39.208 146.776C34.312 146.776 32.728 140.872 33.736 126.904C34.888 112.36 41.368 93.928 42.376 78.952C42.808 72.04 41.224 68.728 37.624 68.728C34.744 68.728 31.72 76.504 24.808 89.176C17.464 102.568 12.856 115.816 8.68 115.816C5.512 115.816 3.64 109.912 3.64 102.712ZM175.205 42.52C176.357 39.352 174.773 39.208 173.621 41.944C156.197 83.128 145.973 101.272 137.045 101.272C133.877 101.272 135.029 97.24 137.909 91.336C139.781 87.016 144.101 82.984 144.101 79.384C144.101 77.656 143.237 76.36 137.909 74.344C136.757 73.768 135.173 72.76 135.173 71.32C135.173 71.176 135.173 70.888 135.317 70.312C137.189 68.296 138.053 69.016 138.053 67.288C138.053 66.28 137.333 65.416 136.181 65.128C135.173 64.84 133.013 65.992 132.437 68.728C132.149 69.736 132.149 70.744 132.293 71.608C129.125 76.648 124.517 79.816 119.045 81.112C117.461 76.504 114.437 73.48 110.405 73.48C107.093 73.48 104.789 75.64 104.501 77.944C104.069 81.688 107.669 84.136 112.133 84.136C113.861 84.136 115.445 84.136 116.885 83.848C117.173 85.432 117.173 87.16 117.029 89.176C116.021 102.136 109.109 110.92 104.357 110.344C102.341 110.056 101.045 107.896 101.333 104.152C101.765 99.4 104.213 94.072 109.397 88.888C110.981 87.016 112.709 85.864 110.405 85.576C108.677 85.288 107.093 86.728 105.653 88.312C101.765 92.632 99.1727 98.68 98.5967 103.864C98.1647 108.904 100.469 112.504 104.213 112.792C111.125 113.224 118.469 106.168 119.909 90.328C120.053 87.88 120.053 85.432 119.621 83.416C125.093 82.12 129.557 79.096 133.301 73.912C134.021 75.064 135.173 75.928 136.757 76.504C139.781 77.656 140.357 78.52 140.357 80.104C140.357 82.84 136.613 87.736 135.173 90.616C130.997 98.968 133.013 103.864 136.469 103.864C148.853 103.864 162.389 78.808 175.205 42.52ZM112.565 81.832C108.389 81.832 106.949 79.96 107.093 78.088C107.237 76.504 108.677 75.64 110.261 75.64C112.997 75.784 115.301 77.8 116.453 81.544C115.157 81.688 113.861 81.832 112.565 81.832ZM190.561 76.072C191.713 76.072 192.289 74.632 192.289 73.912C192.289 73.192 191.137 71.464 190.129 71.464C189.265 71.464 179.041 76.216 171.553 81.112C170.545 81.688 169.681 82.264 168.961 82.84C170.545 75.064 172.273 66.424 174.289 57.496C177.025 44.68 180.769 30.424 181.201 29.704C182.785 26.248 184.657 23.224 185.089 21.496C185.521 20.2 185.089 16.888 183.937 16.888C181.489 16.888 178.033 24.52 170.977 55.624C167.809 69.016 165.937 78.52 164.785 86.008C161.761 88.6 160.897 90.472 161.329 91.768C161.617 92.344 162.337 92.92 163.633 93.352C163.201 96.088 162.913 98.68 162.625 101.272C161.473 112.072 161.185 119.128 162.913 119.128C164.497 119.128 163.201 115.24 165.361 102.136L166.801 93.928C171.121 94.504 177.889 94.36 185.377 93.64C194.881 92.632 207.985 90.76 215.905 88.168C217.057 87.88 217.633 85.288 215.473 85.72C206.113 88.024 194.305 89.896 185.233 90.76C178.753 91.336 170.113 91.768 167.377 90.76C167.521 89.752 167.665 88.744 167.953 87.736C169.681 86.152 172.993 84.28 176.017 82.408C180.769 79.672 188.833 75.496 189.121 75.496C189.409 75.496 189.841 76.072 190.561 76.072ZM318.993 45.256C317.265 45.976 318.129 47.848 319.857 47.56C321.585 47.416 327.777 44.392 329.217 38.344C330.657 31.576 327.489 25.96 318.993 24.52C311.217 23.224 298.689 24.088 280.257 32.296C261.969 40.36 253.185 48.424 250.881 59.08C248.577 69.736 254.049 77.512 269.889 92.488C273.633 96.232 277.089 99.544 279.825 102.424C278.673 103 277.377 103.432 276.513 104.008C262.401 111.352 249.441 120.568 247.569 130.648C246.273 138.28 252.897 146.632 267.153 147.928C281.985 149.368 296.241 142.888 297.969 131.368C299.409 122.152 295.665 114.664 284.577 103C300.705 96.088 329.217 87.88 332.529 87.16C336.417 86.44 335.697 84.712 331.953 85.576C328.497 86.296 298.401 94.792 282.705 101.128C279.681 97.96 276.081 94.504 271.905 90.616C257.649 77.368 252.753 69.592 254.913 59.656C257.217 49.72 269.889 40.936 281.985 35.176C296.097 28.552 311.073 25.96 318.417 27.256C325.041 28.408 327.633 32.152 326.481 37.624C325.473 42.232 321.441 44.392 318.993 45.256ZM294.657 130.648C293.217 138.712 281.697 145.48 267.297 144.616C255.489 143.752 249.441 137.272 250.593 130.648C252.033 122.872 260.673 115.672 278.385 106.024C279.393 105.448 280.401 104.872 281.697 104.296C293.217 116.824 295.809 123.448 294.657 130.648ZM332.705 140.296C334.721 140.008 333.569 139.432 332.849 133.96C331.985 127.048 333.425 106.6 334.577 98.392C336.449 83.272 338.609 70.744 339.905 63.688C340.769 58.36 342.065 52.888 343.361 47.704H364.961C375.761 47.704 382.817 47.848 382.529 46.12C382.097 44.536 378.641 45.256 365.393 45.256C351.137 45.256 349.265 44.824 344.225 44.824C346.961 34.744 349.985 26.824 350.273 26.392C351.857 22.936 352.433 25.384 352.865 23.656C353.153 22.36 352.289 18.904 351.137 18.904C349.121 18.904 344.801 26.392 340.193 44.824L319.745 44.68C315.569 44.68 314.561 44.248 313.121 43.384C311.969 42.664 307.937 44.392 308.225 45.688C308.801 47.848 311.393 47.704 339.473 47.704C338.465 52.024 337.457 56.776 336.449 62.104C332.129 85.288 329.969 115.528 329.681 124.312C329.537 134.968 330.833 140.728 332.705 140.296ZM425.648 93.928C416.144 99.976 407.936 103.864 402.608 103.576C397.28 103.144 397.136 98.824 399.008 95.224C400.88 91.192 403.904 87.016 403.904 85.864C403.904 84.568 403.328 83.992 398 81.832C396.848 81.4 395.264 80.392 395.264 78.952C395.264 78.952 395.264 78.664 395.408 78.232C395.408 78.088 395.408 78.088 395.552 77.944C397.28 75.928 398.144 76.504 398.144 74.92C398.144 73.768 397.424 73.048 396.272 72.76C395.264 72.472 393.104 73.48 392.528 76.216C392.24 77.368 392.24 78.52 392.528 79.672C388.64 84.856 379.136 89.176 370.64 91.48C370.64 82.84 367.472 76.36 361.136 76.36C355.808 76.36 351.344 80.68 351.344 86.008C351.344 88.456 352.208 90.472 353.936 92.056C350.48 96.664 347.024 103.144 347.024 110.632C347.024 115.96 349.328 119.56 353.072 119.56C360.128 119.56 369.344 108.76 370.496 94.648C379.712 92.488 388.928 86.008 393.248 81.256C393.968 82.552 395.12 83.56 396.848 84.136C399.872 85.288 400.16 85.864 400.16 86.44C400.16 87.16 397.712 90.904 396.272 94.072C392.96 100.84 395.12 106.024 401.024 106.456C406.64 107.032 416.72 102.568 426.656 95.368C429.392 93.352 428.096 92.344 425.648 93.928ZM352.352 116.824C351.2 116.824 350.192 114.952 350.192 111.928C350.192 108.472 350.768 103.144 353.648 97.672C354.368 96.232 355.232 94.792 356.24 93.64C359.12 95.08 363.008 95.8 367.472 95.224C365.744 107.464 357.968 116.824 352.352 116.824ZM362.432 86.296C362.432 85.72 362 85.288 361.136 85.288C360.56 85.288 358.4 86.872 355.952 89.608C354.8 88.312 354.224 86.584 354.224 84.712C354.224 81.544 356.816 78.808 360.704 78.808C364.736 78.808 367.904 83.272 367.904 90.328C367.904 91.048 367.76 91.624 367.76 92.2C363.584 93.064 360.416 92.632 358.112 91.336C360.416 88.456 362.432 86.728 362.432 86.296ZM473.811 84.856C472.947 84.856 462.147 89.464 448.035 94.504C435.795 98.824 431.763 99.256 429.891 99.256C429.171 99.256 428.451 98.392 428.595 96.664C428.883 94.36 429.315 91.624 431.475 87.16C432.339 85.576 431.475 84.712 430.755 84.856C428.307 85.288 427.587 86.44 427.011 88.456C426.147 90.904 425.571 94.648 425.571 96.808C425.571 99.112 426.723 101.704 430.467 101.704C432.771 101.704 436.083 100.984 449.187 96.52C465.747 90.904 472.659 87.016 474.387 86.584C475.107 86.296 474.531 84.856 473.811 84.856ZM433.635 74.632C434.499 74.776 436.371 73.192 436.803 71.896C437.091 70.6 436.227 68.872 434.931 68.584C434.067 68.44 432.915 70.024 432.627 70.888C432.339 71.896 432.915 74.344 433.635 74.632ZM481.408 86.152C481.408 84.568 480.544 83.272 478.528 83.272C473.92 83.272 468.16 87.592 468.16 93.928C468.16 99.4 472.624 101.704 477.232 101.704C485.008 101.704 493.36 92.776 501.856 82.552C504.736 79.24 507.616 75.352 510.208 71.896L510.64 73.336C512.08 78.808 516.544 88.888 519.424 98.392C516.544 100.552 513.664 103 510.784 105.736C490.912 124.6 491.632 138.28 503.44 138.28C511.792 138.28 524.752 129.064 524.752 113.8C524.752 109.192 523.744 104.152 522.448 99.256C529.504 93.496 536.56 89.176 541.312 87.448C542.176 87.16 542.176 86.44 541.456 86.44C540.88 86.44 540.16 85.864 539.872 86.008C534.256 88.312 528.208 91.768 521.728 96.52C518.56 85.576 513.952 75.352 512.944 71.608C512.656 70.456 512.512 69.448 512.656 68.584C515.536 64.84 517.984 61.96 519.856 61.096C521.152 60.376 521.296 58.504 517.984 58.792C514.528 59.224 510.784 63.112 510.208 68.584C507.616 72.184 504.16 76.936 500.416 81.256C491.776 91.336 483.712 99.4 477.232 99.4C474.208 99.4 472.048 98.248 471.184 95.8C475.504 93.64 481.408 89.032 481.408 86.152ZM522.016 111.928C522.016 125.32 511.216 135.976 502 135.976C495.808 135.976 495.52 124.6 513.376 107.32C515.536 105.16 517.84 103 520.144 101.128C521.296 105.016 522.016 108.76 522.016 111.928ZM470.896 93.064C470.896 89.608 475.36 84.856 479.536 84.856C479.536 86.872 474.64 92.2 470.896 94.36V93.064Z" fill="url(#paint0_linear_202_83)"/>
<defs>
<linearGradient id="paint0_linear_202_83" x1="-5" y1="67" x2="541" y2="67" gradientUnits="userSpaceOnUse">
<stop offset="0.0004" stop-color="#4FD55A"/>
<stop offset="1" stop-color="#5665EE"/>
</linearGradient>
</defs>
</svg>
