<svg width="417" height="234" viewBox="0 0 417 234" fill="none" xmlns="http://www.w3.org/2000/svg">
<path d="M9.57868 61.3307C22.3517 54.1597 40.9476 45.2903 58.6044 39.0629C54.8476 52.4613 50.1517 69.8226 44.8922 91.5242L39.2571 115.113C23.6665 123.039 11.2692 129.266 7.7003 130.776C0.750297 133.795 4.31922 138.135 9.203 138.324C10.7057 138.513 21.4125 138.135 33.6219 137.758L20.6611 189.653C18.9706 196.447 20.8489 198.523 24.23 194.748C27.7989 190.785 27.0476 189.842 25.9206 190.408C24.7935 190.974 24.7935 190.219 26.4841 182.294C27.4233 177.387 31.7435 159.46 37.1908 137.569C61.9854 136.815 94.1057 135.494 97.1111 135.305C101.619 135.116 100.304 130.398 94.8571 130.587L38.3179 133.04L42.0746 118.321C59.5435 109.64 82.2719 98.3177 91.476 93.6C112.702 83.0323 134.303 67.1806 134.303 48.6871C134.303 32.8355 119.464 27.1742 92.603 27.1742C84.1503 27.1742 74.5706 29.0613 64.803 32.0807C69.1233 17.3613 72.6922 6.60485 73.4435 4.71775C74.9463 0.754844 71.0017 1.13226 69.8746 4.15162C69.1233 5.85 65.7422 15.2855 60.2949 33.5903C40.9476 40.1952 21.6003 50.1968 9.01516 57.179C3.56786 60.1984 4.31922 64.35 9.57868 61.3307ZM48.4611 91.7129C52.9692 73.2194 58.4165 53.5936 63.1125 37.5532C74.1949 33.9678 84.7138 31.5145 92.603 31.5145C115.895 31.5145 131.11 37.3645 131.11 47.7436C131.11 60.5758 116.646 75.4839 87.1557 90.3919L43.3895 112.848L48.4611 91.7129ZM34.7489 133.229C26.2962 133.606 18.9706 133.795 17.0922 133.795C9.95435 133.795 11.0814 132.285 20.6611 128.323C23.4787 127.19 30.053 124.171 37.9422 120.208L34.7489 133.229ZM126.163 152.289C148.891 148.515 166.924 110.395 187.962 51.7065C188.713 49.2532 187.023 49.2532 186.271 50.9516C168.051 96.8081 146.637 146.061 125.224 148.515C117.147 149.081 113.202 144.74 112.827 139.079C119.777 136.815 126.163 133.795 128.793 127.945C131.235 123.039 129.732 119.265 126.727 118.698C122.782 117.944 114.893 121.34 110.948 130.021C103.998 145.873 117.147 153.798 126.163 152.289ZM114.329 131.342C117.71 123.416 124.097 120.963 126.163 121.529C127.29 121.906 127.29 124.36 125.975 126.624C123.345 131.153 118.274 135.116 112.827 136.815C113.014 135.116 113.578 133.229 114.329 131.342ZM236.688 123.605C237.627 122.095 237.627 120.585 234.997 120.208C232.368 120.019 206.07 125.492 186.159 134.173L175.265 139.079C177.143 128.134 179.585 116.245 183.718 90.7694C191.607 42.4597 197.054 36.421 200.247 36.2323C201.75 36.0436 202.689 36.421 201.938 33.5903C201.186 30.571 198.932 29.0613 196.491 30.0048C192.17 31.5145 185.972 42.6484 177.707 91.3355C173.386 116.811 170.945 130.965 169.442 141.721C156.669 147.948 149.155 152.855 149.155 155.308C149.155 157.195 154.415 158.516 163.243 162.479L167 164.366C167 165.687 166.812 167.008 166.624 168.518C164.558 189.842 160.238 233.434 168.878 233.434C177.331 233.434 188.977 209.09 188.977 194.937C188.977 181.161 180.149 169.839 171.884 163.611C172.823 155.308 173.762 149.081 174.701 143.231C179.585 140.966 185.408 138.513 192.17 135.871C214.335 127.568 227.859 125.492 229.55 125.303C233.495 124.737 236.312 124.171 236.688 123.605ZM185.596 194.182C185.596 212.487 173.386 228.527 170.381 228.527C167.563 228.527 168.127 206.26 171.132 172.669L171.508 167.197C178.646 172.481 185.596 181.161 185.596 194.182ZM167.376 160.403C160.426 156.063 155.166 155.119 155.166 154.176C155.166 153.61 160.05 150.213 168.878 145.684C168.315 150.779 167.751 155.308 167.376 160.403ZM229.743 191.54C231.622 191.352 228.616 189.276 230.119 171.915C233.312 137.192 241.577 98.5065 244.583 84.3532C248.152 67.5581 253.223 48.8758 253.599 47.9323C255.665 43.4032 258.107 39.4403 258.67 37.1758C259.234 35.4774 258.858 30.9484 257.168 30.9484C254.162 30.9484 249.466 41.1387 240.262 81.9C234.252 108.131 228.804 137.003 226.55 170.405C225.423 184.558 227.302 191.729 229.743 191.54ZM260.686 146.627C271.017 145.873 287.171 135.871 315.722 123.227C317.225 122.661 316.662 120.208 314.22 121.34C280.221 136.248 268.199 142.287 259.559 143.042C256.178 143.231 253.736 141.91 252.985 139.268C259.747 137.003 266.697 132.852 268.951 127.002C270.454 122.661 269.327 119.642 265.758 119.076C261.813 118.321 254.299 121.718 250.543 130.398C246.598 139.079 250.918 147.382 260.686 146.627ZM253.924 131.719C257.117 123.794 263.128 121.34 265.194 121.906C266.509 122.284 266.697 123.982 266.133 125.681C264.631 129.832 258.056 135.116 252.609 137.003C252.609 135.494 252.985 133.795 253.924 131.719ZM416.201 73.4081C415.637 71.521 411.505 72.6532 394.036 72.6532H389.903C392.345 61.5194 394.599 52.8387 395.914 48.6871C397.605 43.2145 399.483 43.7807 400.047 41.5161C400.422 39.629 397.98 38.1194 396.478 37.5532C394.036 36.6097 392.533 38.4968 390.091 42.6484C388.589 45.6678 381.639 59.0661 374.313 72.6532C360.413 72.4645 347.64 72.0871 347.264 72.0871C341.817 72.0871 340.502 71.521 338.624 70.3887C336.933 69.4452 333.552 72.2758 333.928 73.9742C334.303 76.05 354.778 76.2387 372.434 76.05C367.926 84.5419 363.418 92.6565 360.413 97.9403C343.32 126.813 319.652 146.627 307.443 146.627C304.249 146.627 301.807 145.684 302.183 140.777C302.747 132.097 311.012 122.661 316.459 122.85C318.149 122.85 318.901 124.737 317.586 128.134C316.083 131.908 320.591 129.455 321.343 124.36C321.906 120.019 319.84 118.51 317.961 118.51C309.697 118.51 298.614 131.719 298.238 141.344C298.051 147.948 301.995 150.402 307.443 150.402C318.901 150.402 339.939 138.324 362.855 99.45C367.175 91.9016 371.12 84.7307 375.628 76.05C378.821 76.05 381.639 75.8613 384.268 75.8613L380.699 94.7323C375.064 125.303 372.059 164.744 371.871 176.255C371.495 190.408 373.374 197.768 375.628 197.39C378.257 196.824 376.755 196.069 375.816 188.898C374.689 179.84 376.755 153.044 378.07 142.287C380.699 122.473 383.329 106.055 385.02 96.8081C386.334 89.2597 387.649 82.2774 389.152 75.8613H393.472C407.56 75.8613 416.576 75.6726 416.201 73.4081ZM389.903 48.121C391.218 45.479 392.721 45.8565 391.594 48.6871C389.716 53.2161 387.649 61.1419 385.02 72.6532H377.506L389.903 48.121Z" fill="url(#paint0_linear_1405_275)"/>
<defs>
<linearGradient id="paint0_linear_1405_275" x1="3.7557" y1="97.1855" x2="404.79" y2="97.1855" gradientUnits="userSpaceOnUse">
<stop offset="0.0004" stop-color="#4FD55A"/>
<stop offset="1" stop-color="#5665EE"/>
</linearGradient>
</defs>
</svg>
