<svg xmlns="http://www.w3.org/2000/svg" width="243" height="124" viewBox="0 0 243 124">
  <metadata><?xpacket begin="﻿" id="W5M0MpCehiHzreSzNTczkc9d"?>
<x:xmpmeta xmlns:x="adobe:ns:meta/" x:xmptk="Adobe XMP Core 5.6-c138 79.159824, 2016/09/14-01:09:01        ">
   <rdf:RDF xmlns:rdf="http://www.w3.org/1999/02/22-rdf-syntax-ns#">
      <rdf:Description rdf:about=""/>
   </rdf:RDF>
</x:xmpmeta>
                                                                                                    
                                                                                                    
                                                                                                    
                                                                                                    
                                                                                                    
                                                                                                    
                                                                                                    
                                                                                                    
                                                                                                    
                                                                                                    
                                                                                                    
                                                                                                    
                                                                                                    
                                                                                                    
                                                                                                    
                                                                                                    
                                                                                                    
                                                                                                    
                                                                                                    
                                                                                                    
                           
<?xpacket end="w"?></metadata>
<defs>
    <style>
      .cls-1 {
        fill: #03e203;
      }

      .cls-1, .cls-2 {
        fill-rule: evenodd;
      }

      .cls-2 {
        fill: #f20921;
      }
    </style>
  </defs>
  <path id="INNO" class="cls-1" d="M6.579,67.517h18.4V8.1H6.579V67.517Zm31.392,0H55.236V34.9L77.485,67.517H94.791V8.1H77.485v32.87L55.114,8.1H37.971V67.517Zm69,0h17.265V34.9l22.249,32.622h17.3V8.1h-17.3v32.87L124.114,8.1H106.971V67.517ZM177.633,55.2a25.038,25.038,0,0,0,10.679,10.132q6.585,3.2,16.636,3.2,9.888,0,16.515-3.708A24.988,24.988,0,0,0,231.6,54.447q3.505-6.666,3.506-17.082,0-14.347-8.025-22.31T204.219,7.091q-14.469,0-22.574,8.105T173.54,37.851Q173.54,48.267,177.633,55.2Zm17.629-30.274a11.153,11.153,0,0,1,8.916-3.931,11.572,11.572,0,0,1,9.18,3.87q3.382,3.871,3.384,12.26,0,9.97-3.243,13.82t-9.159,3.85a11.317,11.317,0,0,1-9.1-3.931Q191.9,46.93,191.9,37.932,191.9,28.854,195.262,24.923Z"/>
  <path id="MOTIFF" class="cls-2" d="M27.506,115.685l3.881-28.467,14.134,28.467h1.009L60.5,87.433l3.9,28.252h3.871l-5.685-39.5H61.955L46.05,108.6,29.99,76.18H29.349l-5.656,39.5h3.814ZM85.012,77.939A20.047,20.047,0,0,0,77.5,85.553a21.05,21.05,0,0,0-2.754,10.554,19.779,19.779,0,0,0,6.046,14.556,20.223,20.223,0,0,0,14.834,6.015,20.617,20.617,0,0,0,20.746-20.759,19.94,19.94,0,0,0-6.047-14.744A20.5,20.5,0,0,0,95.3,75.187,20.2,20.2,0,0,0,85.012,77.939Zm18.913,3.372A16.375,16.375,0,0,1,110.1,87.4a16.719,16.719,0,0,1,2.192,8.507,17.136,17.136,0,0,1-2.192,8.6,15.97,15.97,0,0,1-6.106,6.1,16.9,16.9,0,0,1-8.513,2.231,16.616,16.616,0,0,1-16.65-16.744,17.114,17.114,0,0,1,2.206-8.627,16.868,16.868,0,0,1,14.445-8.439A16.7,16.7,0,0,1,103.925,81.312Zm25.455-1.264v35.638h4.028V80.047h8.809V76.18H120.571v3.867h8.809Zm17.548,35.638h3.948V76.18h-3.948v39.5Zm12.564,0h3.948V96.3h15.845V92.428H163.44V80.047h15.845V76.18H159.492v39.5Zm27,0h3.948V96.3h15.845V92.428H190.44V80.047h15.845V76.18H186.492v39.5Z"/>
</svg>
